<?xml version="1.0" standalone="no"?>
<!DOCTYPE svg PUBLIC "-//W3C//DTD SVG 20010904//EN"
 "http://www.w3.org/TR/2001/REC-SVG-20010904/DTD/svg10.dtd">
<svg version="1.0" xmlns="http://www.w3.org/2000/svg"
 width="200.000000pt" height="200.000000pt" viewBox="0 0 200.000000 200.000000"
 preserveAspectRatio="xMidYMid meet">

<g transform="translate(0.000000,200.000000) scale(0.100000,-0.100000)"
fill="#000000" stroke="none">
<path d="M729 1861 c-76 -42 -107 -105 -96 -198 10 -89 70 -131 225 -158 194
-33 337 -136 412 -297 38 -80 50 -209 31 -308 -41 -208 -228 -364 -479 -398
-96 -14 -154 -47 -176 -102 -41 -103 -1 -216 90 -250 39 -15 141 -12 174 5 34
18 73 81 90 145 33 126 82 205 198 318 99 96 194 158 312 202 115 44 149 77
165 162 18 96 -49 176 -188 223 -102 35 -181 89 -298 205 -125 125 -160 180
-184 296 -14 70 -47 125 -88 149 -45 27 -144 30 -188 6z"/>
<path d="M707 1172 c-28 -30 -37 -71 -37 -163 0 -144 26 -184 119 -183 113 2
201 80 201 179 0 57 -43 130 -93 160 -55 32 -164 36 -190 7z"/>
</g>
</svg>
